<svg width="258" height="258" viewBox="0 0 258 258" fill="none" xmlns="http://www.w3.org/2000/svg">
<rect width="258" height="258" fill="black"/>
<path d="M52.4361 203.095V157.487H34V219.842H75.6817V203.095H52.4361ZM102.655 173.61C93.9265 173.61 86.9795 176.55 82.081 181.717L92.3233 188.665C94.1046 187.239 97.3109 186.081 100.339 186.081C104.436 186.081 106.841 188.397 106.841 192.584C105.95 192.584 103.634 192.584 101.586 192.584C98.5578 192.584 79.6763 192.584 79.6763 207.727C79.6763 218.684 89.2061 221 94.8171 221C99.2703 221 104.525 219.129 106.841 215.655V219.842H122.961V191.782C122.961 181.004 117.083 173.61 102.655 173.61ZM106.841 205.589C105.683 207.282 103.367 208.796 100.339 208.796C97.489 208.796 95.8859 207.193 95.8859 205.055C95.8859 202.204 98.5578 200.512 105.683 200.512C106.128 200.512 106.573 200.512 106.841 200.512V205.589ZM159.756 174.679L151.384 201.046L143.012 174.679H126.09L143.547 219.842H159.133L176.678 174.679H159.756ZM199.198 173.61C190.47 173.61 183.523 176.55 178.624 181.717L188.867 188.665C190.648 187.239 193.854 186.081 196.882 186.081C200.979 186.081 203.384 188.397 203.384 192.584C202.493 192.584 200.178 192.584 198.129 192.584C195.101 192.584 176.22 192.584 176.22 207.727C176.22 218.684 185.749 221 191.36 221C195.814 221 201.068 219.129 203.384 215.655V219.842H219.505V191.782C219.505 181.004 213.626 173.61 199.198 173.61ZM203.384 205.589C202.226 207.282 199.911 208.796 196.882 208.796C194.032 208.796 192.429 207.193 192.429 205.055C192.429 202.204 195.101 200.512 202.226 200.512C202.671 200.512 203.117 200.512 203.384 200.512V205.589Z" fill="white"/>
<path d="M142.286 98.3129C155.275 101.097 160.841 113.159 161.769 123.366C151.564 118.727 146.925 118.727 144.142 118.727C141.359 118.727 133.009 120.583 133.009 129.862C133.009 139.14 141.359 144.708 155.275 144.708C169.191 144.708 171.046 140.996 189.601 140.996C203.946 140.996 220.89 147.062 222.85 170.917C222.949 171.743 223 172.595 223 173.473C222.969 172.599 222.919 171.747 222.85 170.917C221.488 159.513 210.99 153.059 198.879 153.059C183.107 153.059 179.396 159.554 150.636 158.626C121.876 157.698 111.671 140.068 111.671 124.294C111.671 108.52 124.143 94.4245 142.286 98.3129Z" fill="#6740D7"/>
<path d="M95.8991 124.294C95.8991 142.852 106.104 153.059 112.598 159.554C95.8991 156.771 76.8601 141.736 71.7778 124.294C65.0875 101.333 74.079 71.0904 116.31 64.9085C133.302 62.4211 133.937 48.2064 116.31 37.9995C169.758 29.6745 171.993 75.8706 127.442 83.4665C110.066 86.4292 95.8991 101.097 95.8991 124.294Z" fill="#5024CC"/>
</svg>
