<svg width="258" height="258" viewBox="0 0 258 258" fill="none" xmlns="http://www.w3.org/2000/svg">
<path d="M45.936 168.729V144.153H36V177.753H58.464V168.729H45.936Z" fill="black"/>
<path d="M73.0009 152.841C68.2969 152.841 64.5529 154.425 61.9129 157.209L67.4329 160.953C68.3929 160.185 70.1209 159.561 71.7529 159.561C73.9609 159.561 75.2569 160.809 75.2569 163.065C74.7769 163.065 73.5289 163.065 72.4249 163.065C70.7929 163.065 60.6169 163.065 60.6169 171.225C60.6169 177.129 65.7529 178.377 68.7769 178.377C71.1769 178.377 74.0089 177.369 75.2569 175.497V177.753H83.9449V162.633C83.9449 156.825 80.7769 152.841 73.0009 152.841ZM75.2569 170.073C74.6329 170.985 73.3849 171.801 71.7529 171.801C70.2169 171.801 69.3529 170.937 69.3529 169.785C69.3529 168.249 70.7929 167.337 74.6329 167.337C74.8729 167.337 75.1129 167.337 75.2569 167.337V170.073Z" fill="black"/>
<path d="M103.775 153.417L99.2632 167.625L94.7513 153.417H85.6312L95.0392 177.753H103.439L112.895 153.417H103.775Z" fill="black"/>
<path d="M125.032 152.841C120.328 152.841 116.584 154.425 113.944 157.209L119.464 160.953C120.424 160.185 122.152 159.561 123.784 159.561C125.992 159.561 127.288 160.809 127.288 163.065C126.808 163.065 125.56 163.065 124.456 163.065C122.824 163.065 112.648 163.065 112.648 171.225C112.648 177.129 117.784 178.377 120.808 178.377C123.208 178.377 126.04 177.369 127.288 175.497V177.753H135.976V162.633C135.976 156.825 132.808 152.841 125.032 152.841ZM127.288 170.073C126.664 170.985 125.416 171.801 123.784 171.801C122.248 171.801 121.384 170.937 121.384 169.785C121.384 168.249 122.824 167.337 126.664 167.337C126.904 167.337 127.144 167.337 127.288 167.337V170.073Z" fill="black"/>
<path d="M140.76 144.153V177.753H149.4V144.153H140.76Z" fill="black"/>
<path d="M154.213 177.753H162.853V153.417H154.213V177.753ZM158.533 151.113C161.029 151.113 163.045 149.097 163.045 146.601C163.045 144.153 161.029 142.137 158.533 142.137C156.037 142.137 154.021 144.153 154.021 146.601C154.021 149.097 156.037 151.113 158.533 151.113Z" fill="black"/>
<path d="M182.93 152.841C179.618 152.841 177.554 154.281 176.306 156.009V153.417H167.666V177.753H176.306V164.649C176.306 162.729 177.65 161.337 179.762 161.337C181.874 161.337 183.218 162.729 183.218 164.649V177.753H191.858V162.537C191.858 158.985 190.562 152.841 182.93 152.841Z" fill="black"/>
<path d="M221.355 177.753L213.291 165.033L220.731 153.417H211.131L205.323 163.305V144.153H196.635V177.753H205.323V167.289L211.371 177.753H221.355Z" fill="black"/>
<path d="M94.36 112.039C101.36 113.539 104.36 120.039 104.86 125.539C99.36 123.039 96.86 123.039 95.36 123.039C93.86 123.039 89.36 124.039 89.36 129.039C89.36 134.039 93.86 137.039 101.36 137.039C108.86 137.039 109.86 135.039 119.86 135.039C127.591 135.039 136.723 138.307 137.779 151.162C137.833 151.607 137.86 152.066 137.86 152.539C137.843 152.068 137.816 151.609 137.779 151.162C137.045 145.017 131.387 141.539 124.86 141.539C116.36 141.539 114.36 145.039 98.86 144.539C83.36 144.039 77.86 134.539 77.86 126.039C77.86 117.539 84.582 109.943 94.36 112.039Z" fill="black"/>
<path d="M69.36 126.039C69.36 136.039 74.8599 141.539 78.36 145.039C69.36 143.539 59.0991 135.437 56.3601 126.039C52.7543 113.666 57.6002 97.3697 80.3601 94.0386C89.518 92.6982 89.8601 85.0386 80.3601 79.5386C109.166 75.0526 110.37 99.9455 86.36 104.039C76.9951 105.635 69.36 113.539 69.36 126.039Z" fill="black"/>
</svg>
