<svg width="186" height="100" viewBox="0 0 186 100" fill="none" xmlns="http://www.w3.org/2000/svg">
<path d="M9.936 89.7288V65.1528H0V98.7528H22.464V89.7288H9.936Z" fill="white"/>
<path d="M37.0009 73.8408C32.2969 73.8408 28.5529 75.4248 25.9129 78.2088L31.4329 81.9528C32.3929 81.1848 34.1209 80.5608 35.7529 80.5608C37.9609 80.5608 39.2569 81.8088 39.2569 84.0648C38.7769 84.0648 37.5289 84.0648 36.4249 84.0648C34.7929 84.0648 24.6169 84.0648 24.6169 92.2248C24.6169 98.1288 29.7529 99.3768 32.7769 99.3768C35.1769 99.3768 38.0089 98.3688 39.2569 96.4968V98.7528H47.9449V83.6328C47.9449 77.8248 44.7769 73.8408 37.0009 73.8408ZM39.2569 91.0728C38.6329 91.9848 37.3849 92.8008 35.7529 92.8008C34.2169 92.8008 33.3529 91.9368 33.3529 90.7848C33.3529 89.2488 34.7929 88.3368 38.6329 88.3368C38.8729 88.3368 39.1129 88.3368 39.2569 88.3368V91.0728Z" fill="white"/>
<path d="M67.7753 74.4168L63.2632 88.6248L58.7513 74.4168H49.6312L59.0392 98.7528H67.4392L76.8952 74.4168H67.7753Z" fill="white"/>
<path d="M89.0321 73.8408C84.3281 73.8408 80.5841 75.4248 77.9441 78.2088L83.4641 81.9528C84.4241 81.1848 86.1521 80.5608 87.7841 80.5608C89.9921 80.5608 91.2881 81.8088 91.2881 84.0648C90.8081 84.0648 89.5601 84.0648 88.4561 84.0648C86.8241 84.0648 76.6481 84.0648 76.6481 92.2248C76.6481 98.1288 81.7841 99.3768 84.8081 99.3768C87.2081 99.3768 90.0401 98.3688 91.2881 96.4968V98.7528H99.9761V83.6328C99.9761 77.8248 96.8081 73.8408 89.0321 73.8408ZM91.2881 91.0728C90.6641 91.9848 89.4161 92.8008 87.7841 92.8008C86.2481 92.8008 85.3841 91.9368 85.3841 90.7848C85.3841 89.2488 86.8241 88.3368 90.6641 88.3368C90.9041 88.3368 91.1441 88.3368 91.2881 88.3368V91.0728Z" fill="white"/>
<path d="M104.76 65.1528V98.7528H113.4V65.1528H104.76Z" fill="white"/>
<path d="M118.213 98.7528H126.853V74.4168H118.213V98.7528ZM122.533 72.1128C125.029 72.1128 127.045 70.0968 127.045 67.6008C127.045 65.1528 125.029 63.1368 122.533 63.1368C120.037 63.1368 118.021 65.1528 118.021 67.6008C118.021 70.0968 120.037 72.1128 122.533 72.1128Z" fill="white"/>
<path d="M146.93 73.8408C143.618 73.8408 141.554 75.2808 140.306 77.0088V74.4168H131.666V98.7528H140.306V85.6488C140.306 83.7288 141.65 82.3368 143.762 82.3368C145.874 82.3368 147.218 83.7288 147.218 85.6488V98.7528H155.858V83.5368C155.858 79.9848 154.562 73.8408 146.93 73.8408Z" fill="white"/>
<path d="M185.355 98.7528L177.291 86.0328L184.731 74.4168H175.131L169.323 84.3048V65.1528H160.635V98.7528H169.323V88.2888L175.371 98.7528H185.355Z" fill="white"/>
<path d="M58.36 33.0386C65.36 34.5386 68.36 41.0386 68.86 46.5386C63.36 44.0386 60.86 44.0386 59.36 44.0386C57.86 44.0386 53.36 45.0386 53.36 50.0386C53.36 55.0386 57.86 58.0386 65.36 58.0386C72.86 58.0386 73.86 56.0386 83.86 56.0386C91.591 56.0386 100.723 59.3072 101.779 72.1616C101.833 72.6067 101.86 73.0658 101.86 73.5386C101.843 73.0678 101.816 72.6089 101.779 72.1616C101.045 66.0165 95.3872 62.5386 88.86 62.5386C80.36 62.5386 78.36 66.0386 62.86 65.5386C47.36 65.0386 41.86 55.5386 41.86 47.0386C41.86 38.5386 48.582 30.9433 58.36 33.0386Z" fill="white"/>
<path d="M33.36 47.0386C33.36 57.0386 38.8599 62.5386 42.36 66.0386C33.36 64.5386 23.0991 56.4374 20.3601 47.0386C16.7543 34.6659 21.6002 18.3697 44.3601 15.0386C53.518 13.6982 53.8601 6.03858 44.3601 0.538583C73.1656 -3.94737 74.3699 20.9455 50.36 25.0386C40.9951 26.6351 33.36 34.5386 33.36 47.0386Z" fill="white"/>
</svg>
