<svg width="189" height="184" viewBox="0 0 189 184" fill="none" xmlns="http://www.w3.org/2000/svg">
<path d="M18.4361 166.095V120.487H0V182.842H41.6817V166.095H18.4361ZM68.6547 136.61C59.9265 136.61 52.9795 139.55 48.081 144.717L58.3233 151.665C60.1046 150.239 63.3109 149.081 66.339 149.081C70.4359 149.081 72.8407 151.397 72.8407 155.584C71.95 155.584 69.6344 155.584 67.5859 155.584C64.5578 155.584 45.6763 155.584 45.6763 170.727C45.6763 181.684 55.2061 184 60.8171 184C65.2703 184 70.525 182.129 72.8407 178.655V182.842H88.9611V154.782C88.9611 144.004 83.083 136.61 68.6547 136.61ZM72.8407 168.589C71.6828 170.282 69.3672 171.796 66.339 171.796C63.489 171.796 61.8859 170.193 61.8859 168.055C61.8859 165.204 64.5578 163.512 71.6828 163.512C72.1282 163.512 72.5735 163.512 72.8407 163.512V168.589ZM125.756 137.679L117.384 164.046L109.012 137.679H92.0902L109.547 182.842H125.133L142.678 137.679H125.756ZM165.198 136.61C156.47 136.61 149.523 139.55 144.624 144.717L154.867 151.665C156.648 150.239 159.854 149.081 162.882 149.081C166.979 149.081 169.384 151.397 169.384 155.584C168.493 155.584 166.178 155.584 164.129 155.584C161.101 155.584 142.22 155.584 142.22 170.727C142.22 181.684 151.749 184 157.36 184C161.814 184 167.068 182.129 169.384 178.655V182.842H185.505V154.782C185.505 144.004 179.626 136.61 165.198 136.61ZM169.384 168.589C168.226 170.282 165.911 171.796 162.882 171.796C160.032 171.796 158.429 170.193 158.429 168.055C158.429 165.204 161.101 163.512 168.226 163.512C168.671 163.512 169.117 163.512 169.384 163.512V168.589Z" fill="#1A1A1A"/>
<path d="M108.286 61.3129C121.275 64.0966 126.841 76.1593 127.769 86.3662C117.564 81.7267 112.925 81.7267 110.142 81.7267C107.359 81.7267 99.0088 83.5825 99.0088 92.8615C99.0088 102.14 107.359 107.708 121.275 107.708C135.191 107.708 137.046 103.996 155.601 103.996C169.946 103.996 186.89 110.062 188.85 133.917C188.949 134.743 189 135.595 189 136.473C188.969 135.599 188.919 134.747 188.85 133.917C187.488 122.513 176.99 116.059 164.879 116.059C149.107 116.059 145.396 122.554 116.636 121.626C87.8759 120.698 77.6707 103.068 77.6707 87.2941C77.6707 71.5199 90.1433 57.4245 108.286 61.3129Z" fill="#6740D7"/>
<path d="M61.8991 87.294C61.8991 105.852 72.1041 116.059 78.5985 122.554C61.8991 119.771 42.8601 104.736 37.7778 87.294C31.0875 64.3328 40.079 34.0904 82.3096 27.9085C99.302 25.4211 99.9368 11.2064 82.3097 0.9995C135.758 -7.32552 137.993 38.8706 93.4424 46.4665C76.0659 49.4292 61.8991 64.0966 61.8991 87.294Z" fill="#5024CC"/>
</svg>
